<svg id="SvgjsSvg1006" width="418" height="332" xmlns="http://www.w3.org/2000/svg" version="1.1"><defs id="SvgjsDefs1007"><marker id="SvgjsMarker1032" markerWidth="14" markerHeight="10" refX="10" refY="5" viewBox="0 0 14 10" orient="auto" markerUnits="userSpaceOnUse" stroke-dasharray="0,0"><path id="SvgjsPath1033" d="M0,0 L14,5 L0,10 L0,0" fill="#323232" stroke="#323232" stroke-width="1"></path></marker><marker id="SvgjsMarker1040" markerWidth="14" markerHeight="10" refX="10" refY="5" viewBox="0 0 14 10" orient="auto" markerUnits="userSpaceOnUse" stroke-dasharray="0,0"><path id="SvgjsPath1041" d="M0,0 L14,5 L0,10 L0,0" fill="#323232" stroke="#323232" stroke-width="1"></path></marker><marker id="SvgjsMarker1048" markerWidth="14" markerHeight="10" refX="10" refY="5" viewBox="0 0 14 10" orient="auto" markerUnits="userSpaceOnUse" stroke-dasharray="0,0"><path id="SvgjsPath1049" d="M0,0 L14,5 L0,10 L0,0" fill="#323232" stroke="#323232" stroke-width="1"></path></marker><marker id="SvgjsMarker1056" markerWidth="14" markerHeight="10" refX="10" refY="5" viewBox="0 0 14 10" orient="auto" markerUnits="userSpaceOnUse" stroke-dasharray="0,0"><path id="SvgjsPath1057" d="M0,0 L14,5 L0,10 L0,0" fill="#323232" stroke="#323232" stroke-width="1"></path></marker></defs><g id="SvgjsG1008" transform="translate(25,25)"><path id="SvgjsPath1009" d="M 0 4Q 0 0 4 0L 364 0Q 368 0 368 4L 368 278Q 368 282 364 282L 4 282Q 0 282 0 278Z" stroke="rgba(50,50,50,1)" stroke-width="2" fill-opacity="1" fill="#ffffff"></path><g id="SvgjsG1010"><text id="SvgjsText1011" font-family="微软雅黑" text-anchor="middle" font-size="13px" width="348px" fill="#323232" font-weight="400" align="middle" lineHeight="125%" anchor="middle" family="微软雅黑" size="13px" weight="400" font-style="" opacity="1" y="130.375" transform="rotate(0)"></text></g></g><g id="SvgjsG1012" transform="translate(60,59)"><path id="SvgjsPath1013" d="M 0 35C 0 -11.666666666666666 70 -11.666666666666666 70 35C 70 81.66666666666667 0 81.66666666666667 0 35Z" stroke="rgba(50,50,50,1)" stroke-width="2" fill-opacity="1" fill="#fff9c4"></path><g id="SvgjsG1014"><text id="SvgjsText1015" font-family="微软雅黑" text-anchor="middle" font-size="13px" width="50px" fill="#323232" font-weight="400" align="middle" lineHeight="125%" anchor="middle" family="微软雅黑" size="13px" weight="400" font-style="" opacity="1" y="24.375" transform="rotate(0)"><tspan id="SvgjsTspan1016" dy="16" x="35"><tspan id="SvgjsTspan1017" style="text-decoration:;">客户端C</tspan></tspan></text></g></g><g id="SvgjsG1018" transform="translate(258,59)"><path id="SvgjsPath1019" d="M 0 4Q 0 0 4 0L 96 0Q 100 0 100 4L 100 66Q 100 70 96 70L 4 70Q 0 70 0 66Z" stroke="rgba(50,50,50,1)" stroke-width="2" fill-opacity="1" fill="#bbdefb"></path><g id="SvgjsG1020"><text id="SvgjsText1021" font-family="微软雅黑" text-anchor="middle" font-size="13px" width="80px" fill="#323232" font-weight="400" align="middle" lineHeight="125%" anchor="middle" family="微软雅黑" size="13px" weight="400" font-style="" opacity="1" y="24.375" transform="rotate(0)"><tspan id="SvgjsTspan1022" dy="16" x="50"><tspan id="SvgjsTspan1023" style="text-decoration:;">服务实例A1</tspan></tspan></text></g></g><g id="SvgjsG1024" transform="translate(258,204)"><path id="SvgjsPath1025" d="M 0 4Q 0 0 4 0L 96 0Q 100 0 100 4L 100 66Q 100 70 96 70L 4 70Q 0 70 0 66Z" stroke="rgba(50,50,50,1)" stroke-width="2" fill-opacity="1" fill="#bbdefb"></path><g id="SvgjsG1026"><text id="SvgjsText1027" font-family="微软雅黑" text-anchor="middle" font-size="13px" width="80px" fill="#323232" font-weight="400" align="middle" lineHeight="125%" anchor="middle" family="微软雅黑" size="13px" weight="400" font-style="" opacity="1" y="24.375" transform="rotate(0)"><tspan id="SvgjsTspan1028" dy="16" x="50"><tspan id="SvgjsTspan1029" style="text-decoration:;">服务实例A2</tspan></tspan></text></g></g><g id="SvgjsG1030"><path id="SvgjsPath1031" d="M131 94L254.39999999999998 94" stroke="#323232" stroke-width="2" fill="none" marker-end="url(#SvgjsMarker1032)"></path><rect id="SvgjsRect1034" width="42" height="16" x="171.7" y="86" fill="#ffffff"></rect><text id="SvgjsText1035" font-family="微软雅黑" text-anchor="middle" font-size="13px" width="42px" fill="#323232" font-weight="400" align="top" lineHeight="16px" anchor="middle" family="微软雅黑" size="13px" weight="400" font-style="" opacity="1" y="83.375" transform="rotate(0)"><tspan id="SvgjsTspan1036" dy="16" x="192.7"><tspan id="SvgjsTspan1037" style="text-decoration:;">ws连接</tspan></tspan></text></g><g id="SvgjsG1038"><path id="SvgjsPath1039" d="M257.1710923765901 238.4406144872694L97.98406744427575 131.01378784583025" stroke-dasharray="3,3" stroke="#323232" stroke-width="2" fill="none" marker-end="url(#SvgjsMarker1040)"></path><rect id="SvgjsRect1042" width="104" height="16" x="125.57757991043292" y="176.72720116654983" fill="#ffffff"></rect><text id="SvgjsText1043" font-family="微软雅黑" text-anchor="middle" font-size="13px" width="104px" fill="#323232" font-weight="400" align="top" lineHeight="16px" anchor="middle" family="微软雅黑" size="13px" weight="400" font-style="" opacity="1" y="174.10220116654983" transform="rotate(0)"><tspan id="SvgjsTspan1044" dy="16" x="177.57757991043292"><tspan id="SvgjsTspan1045" style="text-decoration:;">无法直接发送消息</tspan></tspan></text></g><g id="SvgjsG1046"><path id="SvgjsPath1047" d="M308 203L308 132.6" stroke-dasharray="8,5" stroke="#323232" stroke-width="2" fill="none" marker-end="url(#SvgjsMarker1048)"></path><rect id="SvgjsRect1050" width="52" height="16" x="282" y="159.8" fill="#ffffff"></rect><text id="SvgjsText1051" font-family="微软雅黑" text-anchor="middle" font-size="13px" width="52px" fill="#323232" font-weight="400" align="top" lineHeight="16px" anchor="middle" family="微软雅黑" size="13px" weight="400" font-style="" opacity="1" y="157.175" transform="rotate(0)"><tspan id="SvgjsTspan1052" dy="16" x="308"><tspan id="SvgjsTspan1053" style="text-decoration:;">转发消息</tspan></tspan></text></g><g id="SvgjsG1054"><path id="SvgjsPath1055" d="M257 68.57115043874614L123.53582222752414 68.57115043874614" stroke-dasharray="8,5" stroke="#323232" stroke-width="2" fill="none" marker-end="url(#SvgjsMarker1056)"></path><rect id="SvgjsRect1058" width="52" height="16" x="164.26791111376207" y="60.571150438746145" fill="#ffffff"></rect><text id="SvgjsText1059" font-family="微软雅黑" text-anchor="middle" font-size="13px" width="52px" fill="#323232" font-weight="400" align="top" lineHeight="16px" anchor="middle" family="微软雅黑" size="13px" weight="400" font-style="" opacity="1" y="57.946150438746145" transform="rotate(0)"><tspan id="SvgjsTspan1060" dy="16" x="190.26791111376207"><tspan id="SvgjsTspan1061" style="text-decoration:;">转发消息</tspan></tspan></text></g></svg>